<svg xmlns="http://www.w3.org/2000/svg" viewBox="0 0 261.04706 213.99425" width="261.04706" height="213.99425">
  <g transform="translate(19.468914,-26.664976)">
    <path fill="#000000" d="m 21.768319,240.06397 c -0.29237,-0.6939 -4.28283,-15.8593 -9.90338,-37.63698 -0.7887,-3.05594 -2.6844898,-10.37829 -4.2128598,-16.27188 -4.5472,-17.53453 -15.3681,-60.4767 -18.4097902,-73.05825 -4.95364,-20.490071 -8.4112,-35.324671 -8.66522,-37.177988 -0.32856,-2.397047 1.11936,-2.607537 3.83858,-0.558031 3.75345,2.829021 23.3287402,20.768994 42.50963,38.958389 2.7649,2.62198 7.17021,6.78544 9.78959,9.25214 6.59681,6.2123 21.30664,20.29955 30.12304,28.84811 4.05288,3.92975 8.51772,8.23564 9.92187,9.56865 l 2.55301,2.42364 -1.5875,1.67464 c -4.14747,4.37513 -8.48364,8.69162 -8.73127,8.69162 -0.2554,0 -6.83533,-6.12067 -23.01171,-21.40555 -3.63416,-3.43388 -9.88494,-9.34112 -13.89062,-13.12721 -13.15141,-12.43042 -25.3596798,-23.69809 -26.6731898,-24.6181 -0.41564,-0.29113 -0.58592,-0.31616 -0.58592,-0.0862 0,0.17834 0.96067,4.08439 2.13482,8.68011 2.12284,8.30898 3.1173798,12.11905 6.4630598,24.76002 0.96287,3.63802 2.64439,10.00787 3.73671,14.15521 1.09232,4.14734 2.50583,9.44563 3.14112,11.77396 0.6353,2.32833 2.06527,7.62661 3.17772,11.77396 1.11245,4.14734 2.72067,10.10047 3.57382,13.22916 1.98136,7.26608 6.61233,24.60352 6.61233,24.75527 0,0.0636 13.21594,0.11557 29.36875,0.11557 16.15281,0 29.36875,-0.0559 29.36875,-0.12413 0,-0.0683 0.88348,-3.84851 1.96329,-8.40052 1.07982,-4.55202 2.39874,-10.18139 2.93096,-12.50973 0.53221,-2.32833 1.48664,-6.49552 2.12096,-9.26041 0.634321,-2.7649 1.573031,-6.87256 2.086021,-9.12813 0.51298,-2.25557 1.58722,-6.95854 2.38719,-10.45104 1.77172,-7.73501 3.3492,-14.74993 5.59283,-24.87084 0.93552,-4.2201 1.76348,-7.9408 1.83989,-8.26822 l 0.13894,-0.59532 H 91.400469 c -11.03811,0 -20.13643,-0.0671 -20.2185,-0.14921 -0.0821,-0.0821 0.35888,-1.06434 0.97988,-2.18282 5.26373,-9.48043 33.179341,-59.251671 43.879531,-78.23359 2.62499,-4.656666 6.04104,-10.728854 7.59123,-13.49375 1.55019,-2.764896 4.07085,-7.22974 5.60145,-9.921875 1.53061,-2.692136 3.46901,-6.116315 4.30756,-7.609288 2.58719,-4.606289 2.65695,-4.161802 0.66083,4.210551 -0.87936,3.688316 -2.73262,11.468529 -4.11837,17.289362 -1.38574,5.820834 -3.5154,14.750521 -4.73258,19.843751 -1.21718,5.093229 -3.12193,13.070416 -4.23279,17.727083 -1.11085,4.656667 -2.84561,11.844606 -3.85501,15.973206 -1.00941,4.12859 -1.83529,7.61117 -1.83529,7.73906 0,0.13176 9.45886,0.23252 21.82813,0.23252 15.06416,0 21.82812,0.0861 21.82812,0.27772 0,0.15275 -0.18656,0.6385 -0.41458,1.07944 -0.61447,1.18825 -16.70076,28.7278 -26.17578,44.81263 -8.54297,14.50259 -13.04522,22.17969 -17.1458,29.23646 -1.31068,2.25558 -5.14581,8.80401 -8.52251,14.55209 -9.375561,15.95976 -12.828831,21.90066 -12.828831,22.07032 0,0.0851 21.171471,0.15468 47.047721,0.15468 h 47.04771 l 1.8045,-6.68073 c 0.99247,-3.6744 3.58025,-13.05057 5.75062,-20.83594 8.76579,-31.44395 20.67361,-75.6139 21.63625,-80.25588 0.17592,-0.84828 0.27135,-1.59084 0.21207,-1.65012 -0.16858,-0.16857 -6.36433,5.52754 -20.57595,18.91666 -7.20328,6.78639 -16.96641,15.977 -21.69583,20.42358 -4.72943,4.44657 -11.45646,10.78112 -14.94896,14.07677 -3.4925,3.29565 -6.48125,5.99374 -6.64167,5.99575 -0.35392,0.004 -9.89479,-9.88902 -9.89479,-10.26045 0,-0.23255 11.27803,-11.12047 29.10417,-28.09746 3.27422,-3.11825 8.3939,-8.00608 11.37708,-10.86184 2.98318,-2.85576 7.74568,-7.37637 10.58333,-10.04579 2.83766,-2.66943 9.2075,-8.67434 14.15521,-13.34425 14.12163,-13.328736 24.29771,-22.735461 28.30197,-26.162212 2.45015,-2.096778 3.40964,-2.476979 4.11282,-1.629708 0.40204,0.484435 0.51425,-0.08817 -2.61767,13.357453 -4.65786,19.996607 -16.98143,69.229807 -25.85478,103.290927 -0.95188,3.6539 -2.6212,10.09626 -3.70958,14.31636 -3.25771,12.63139 -9.13669,34.9086 -9.26887,35.12247 -0.0678,0.10967 -40.12377,0.19941 -89.0133,0.19941 H 22.019149 Z"/>
  </g>
</svg>
