<svg xmlns="http://www.w3.org/2000/svg" version="1.1" width="1024" height="1024" viewBox="0 0 294.2928 294.29281" id="svg1" xml:space="preserve" inkscape:version="1.4.2 (f4327f4, 2025-05-13)" sodipodi:docname="favicon.svg" xmlns:inkscape="http://www.inkscape.org/namespaces/inkscape" xmlns:sodipodi="http://sodipodi.sourceforge.net/DTD/sodipodi-0.dtd" xmlns:svg="http://www.w3.org/2000/svg"><metadata><rdf:RDF xmlns:rdf="http://www.w3.org/1999/02/22-rdf-syntax-ns#" xmlns:dc="http://purl.org/dc/elements/1.1/"><rdf:Description><dc:creator>RealFaviconGenerator</dc:creator><dc:source>https://realfavicongenerator.net</dc:source></rdf:Description></rdf:RDF></metadata><sodipodi:namedview id="namedview1" pagecolor="#ffffff" bordercolor="#000000" borderopacity="0.25" inkscape:showpageshadow="2" inkscape:pageopacity="0.0" inkscape:pagecheckerboard="0" inkscape:deskcolor="#d1d1d1" inkscape:document-units="mm" inkscape:zoom="0.28582991" inkscape:cx="-565.02134" inkscape:cy="1936.4663" inkscape:window-width="2578" inkscape:window-height="1624" inkscape:window-x="4284" inkscape:window-y="21" inkscape:window-maximized="0" inkscape:current-layer="layer1"></sodipodi:namedview><defs id="defs1"></defs><g inkscape:label="Layer 1" inkscape:groupmode="layer" id="layer1" transform="translate(19.468914,-26.664976)"><circle style="fill:#000000;stroke-width:0.0951554" id="path2" cx="127.6775" cy="173.81139" r="147.14641"></circle><path style="display:inline;fill:#ffffff;stroke-width:0.913245" d="m 46.137309,270.98211 c -0.267037,-0.6337 -3.911237,-14.48339 -9.044215,-34.37175 -0.720281,-2.79078 -2.451601,-9.47792 -3.847319,-14.86021 C 29.093081,205.73689 19.210962,166.5202 16.433149,155.03021 11.909213,136.31776 8.7516724,122.77017 8.5197088,121.07765 c -0.3000908,-2.18912 1.0221935,-2.38137 3.5054862,-0.50968 3.42786,2.58365 21.304883,18.96715 38.821715,35.5785 2.525025,2.39454 6.548133,6.19681 8.940288,8.44952 6.024478,5.67333 19.458118,18.53839 27.509632,26.34533 3.701289,3.58879 7.778743,7.52113 9.061107,8.73848 l 2.331516,2.21343 -1.44978,1.52932 c -3.787668,3.99551 -7.747677,7.93753 -7.973806,7.93753 -0.23323,0 -6.242282,-5.58959 -21.015281,-19.54842 -3.318904,-3.13599 -9.027316,-8.5307 -12.685493,-11.98834 -12.010442,-11.35197 -23.15959,-21.64212 -24.359134,-22.48233 -0.379545,-0.26592 -0.535062,-0.28876 -0.535062,-0.0786 0,0.16283 0.877258,3.73004 1.94958,7.92703 1.938637,7.58816 2.846948,11.06762 5.902387,22.61192 0.879281,3.32239 2.41489,9.13965 3.412524,12.92715 0.997537,3.78759 2.288404,8.62614 2.868584,10.75254 0.580192,2.12629 1.886124,6.96493 2.902021,10.75244 1.015975,3.78757 2.484665,9.22421 3.263744,12.08147 1.809502,6.63572 6.038729,22.469 6.038729,22.60762 0,0.0584 12.069337,0.10549 26.820778,0.10549 14.751438,0 26.820866,-0.0511 26.820866,-0.11333 0,-0.0622 0.80677,-3.51462 1.79289,-7.67171 0.9862,-4.15707 2.19067,-9.29809 2.67671,-11.4244 0.48602,-2.1264 1.35762,-5.93206 1.93699,-8.45709 0.57927,-2.52503 1.43653,-6.27628 1.90503,-8.33619 0.46849,-2.0599 1.4495,-6.3548 2.18008,-9.54429 1.61801,-7.06395 3.05865,-13.47036 5.10761,-22.71319 0.85433,-3.85399 1.61049,-7.2519 1.68027,-7.55089 l 0.12684,-0.54365 h -18.32806 c -10.08048,0 -18.389535,-0.0612 -18.464413,-0.13627 -0.07499,-0.075 0.327663,-0.97205 0.894792,-1.99342 4.807134,-8.65802 30.300881,-54.11122 40.072771,-71.44633 2.39726,-4.25271 5.5169,-9.798099 6.93262,-12.323133 1.41569,-2.525025 3.7177,-6.602479 5.11551,-9.061113 1.39782,-2.458535 3.16804,-5.585662 3.93381,-6.949051 2.36273,-4.206668 2.42649,-3.80073 0.60356,3.845209 -0.80311,3.368319 -2.49563,10.473552 -3.76111,15.789433 -1.26557,5.315815 -3.21042,13.470805 -4.322,18.122145 -1.11162,4.65143 -2.85107,11.93645 -3.86559,16.18916 -1.01444,4.25269 -2.59872,10.817 -3.52054,14.58742 -0.92183,3.77042 -1.67609,6.95088 -1.67609,7.06768 0,0.12027 8.63829,0.21233 19.93438,0.21233 13.75728,0 19.93445,0.0786 19.93445,0.25361 0,0.13955 -0.17042,0.5831 -0.37862,0.98585 -0.56119,1.08511 -15.25191,26.23548 -23.90489,40.92483 -7.80183,13.24439 -11.91344,20.25545 -15.6583,26.69993 -1.19697,2.05992 -4.69935,8.04029 -7.7831,13.28962 -8.56222,14.57518 -11.71583,20.00067 -11.71583,20.15565 0,0.0777 19.33464,0.14119 42.96602,0.14119 h 42.96601 l 1.64794,-6.10111 c 0.90641,-3.35562 3.26961,-11.91838 5.2517,-19.02825 8.00532,-28.71603 18.88003,-69.05391 19.75922,-73.29318 0.16063,-0.77471 0.24776,-1.45289 0.1936,-1.50695 -0.15388,-0.15398 -5.81215,5.04795 -18.7908,17.27547 -6.57838,6.19764 -15.49447,14.59089 -19.81356,18.65173 -4.31919,4.0608 -10.46257,9.84576 -13.65207,12.85554 -3.18951,3.00967 -5.91901,5.47369 -6.0655,5.47554 -0.3232,0 -9.03636,-9.03107 -9.03636,-9.37026 0,-0.21241 10.29966,-10.15573 26.57922,-25.65985 2.99016,-2.84769 7.66569,-7.31152 10.39007,-9.91948 2.72438,-2.60804 7.07371,-6.73645 9.66513,-9.17425 2.5915,-2.43782 8.40869,-7.92185 12.92714,-12.1866 12.89657,-12.17235 22.18973,-20.76296 25.84663,-23.89246 2.23754,-1.91488 3.11379,-2.26211 3.75599,-1.48832 0.36722,0.44238 0.46968,-0.0803 -2.3906,12.19865 -4.2537,18.26177 -15.50816,63.22367 -23.61164,94.32976 -0.86931,3.33689 -2.3938,9.22037 -3.38777,13.07435 -2.97508,11.53546 -8.34404,31.88006 -8.46477,32.07531 -0.0621,0.10026 -36.6428,0.1821 -81.29081,0.1821 H 46.366349 Z" id="path1"></path></g></svg>